<svg width="34" height="35" viewBox="0 0 34 35" fill="none" xmlns="http://www.w3.org/2000/svg">
<g clip-path="url(#clip0_211_2049)">
<path fill-rule="evenodd" clip-rule="evenodd" d="M10.0459 10.6139L3.09509 17.4948C4.48538 18.8711 6.07357 20.0311 7.80514 20.9385C8.28376 22.1953 9.03398 23.374 10.0558 24.3855C13.9001 28.1911 20.1329 28.1911 23.9772 24.3855C24.999 23.374 25.7492 22.1953 26.2278 20.9385C27.9594 20.0311 29.5476 18.8711 30.9379 17.4948L23.9927 10.6195C23.9875 10.6143 23.9824 10.6092 23.9772 10.604C20.1329 6.79841 13.9001 6.79841 10.0558 10.604C10.0525 10.6073 10.0492 10.6106 10.0459 10.6139ZM23.3121 22.18C21.2865 22.8567 19.1602 23.2033 17.0165 23.2033C14.8728 23.2033 12.7465 22.8567 10.721 22.18C10.9404 22.4682 11.1827 22.7448 11.4479 23.0074C14.5234 26.0519 19.5096 26.0519 22.585 23.0074C22.8502 22.7448 23.0926 22.4682 23.3121 22.18ZM11.5907 11.8444C12.113 12.1859 12.6683 12.4782 13.2494 12.7165C14.4437 13.2062 15.7237 13.4583 17.0165 13.4583C18.3092 13.4583 19.5893 13.2062 20.7836 12.7165C21.3647 12.4782 21.92 12.1859 22.4423 11.8444C19.4053 8.98362 14.6277 8.98363 11.5907 11.8444Z" fill="#3B4158"/>
</g>
<defs>
<clipPath id="clip0_211_2049">
<rect width="27.8428" height="19.4899" fill="white" transform="translate(3.09509 7.74982)"/>
</clipPath>
</defs>
</svg>
