<svg width="34" height="35" viewBox="0 0 34 35" fill="none" xmlns="http://www.w3.org/2000/svg">
<g clip-path="url(#clip0_211_2072)">
<path d="M30.0806 9.03317C30.0806 9.35753 30.3468 9.62048 30.6752 9.62048H31.2697C31.5981 9.62048 31.8643 9.35753 31.8643 9.03317C31.8643 8.70881 31.5981 8.44586 31.2697 8.44586H30.6752C30.3468 8.44586 30.0806 8.70881 30.0806 9.03317Z" fill="#212326"/>
<path d="M12.8384 27.2397H15.7267L14.8858 26.4091C14.6628 26.1889 14.3604 26.0651 14.045 26.0651H12.8384C8.24126 26.0651 4.51456 22.3839 4.51456 17.8428C4.51456 13.3017 8.24126 9.62048 12.8384 9.62048H22.3513C26.9485 9.62048 30.6752 13.3017 30.6752 17.8428C30.6752 22.3839 26.9485 26.0651 22.3513 26.0651H18.7927C18.3197 26.0651 17.866 25.8795 17.5315 25.5491L16.5464 24.576C15.9889 24.0253 15.2327 23.7159 14.4443 23.7159H12.8384C9.55471 23.7159 6.8928 21.0864 6.8928 17.8428C6.8928 14.5992 9.55471 11.9697 12.8384 11.9697H22.3513C25.635 11.9697 28.2969 14.5992 28.2969 17.8428C28.2969 21.0864 25.635 23.7159 22.3513 23.7159H20.0664C19.5933 23.7159 19.1396 23.5302 18.8051 23.1999L17.82 22.2268C17.2625 21.676 16.5063 21.3667 15.7179 21.3667H12.8384C10.8682 21.3667 9.27103 19.789 9.27103 17.8428C9.27103 15.8966 10.8682 14.3189 12.8384 14.3189H22.3513C24.3215 14.3189 25.9187 15.8966 25.9187 17.8428C25.9187 19.7652 24.3602 21.3281 22.4233 21.3659L22.4229 21.3667H21.5528C21.0797 21.3667 20.626 21.181 20.2915 20.8506L19.3064 19.8775C18.849 19.4256 18.2578 19.1362 17.6247 19.0469L17.5949 19.0174H12.8384C12.1817 19.0174 11.6493 18.4915 11.6493 17.8428C11.6493 17.1941 12.1817 16.6682 12.8384 16.6682H22.3513C23.0081 16.6682 23.5405 17.1941 23.5405 17.8428C23.5405 18.4915 23.0081 19.0174 22.3513 19.0174H19.9731L20.814 19.848C21.0369 20.0683 21.3394 20.192 21.6548 20.192H22.3513C23.6648 20.192 24.7296 19.1402 24.7296 17.8428C24.7296 16.5454 23.6648 15.4936 22.3513 15.4936H12.8384C11.5249 15.4936 10.4602 16.5454 10.4602 17.8428C10.4602 19.1402 11.5249 20.192 12.8384 20.192H17.2043C17.6774 20.192 18.1311 20.3777 18.4656 20.7081L19.4507 21.6812C20.0082 22.2319 20.7643 22.5413 21.5528 22.5413H22.6486V22.5322C25.1371 22.3807 27.1078 20.339 27.1078 17.8428C27.1078 15.2479 24.9782 13.1443 22.3513 13.1443H12.8384C10.2115 13.1443 8.08191 15.2479 8.08191 17.8428C8.08191 20.4377 10.2115 22.5413 12.8384 22.5413H15.7179C16.191 22.5413 16.6447 22.7269 16.9792 23.0573L17.9643 24.0304C18.5218 24.5811 19.2779 24.8905 20.0664 24.8905H22.3513C26.2917 24.8905 29.4861 21.7352 29.4861 17.8428C29.4861 13.9504 26.2917 10.7951 22.3513 10.7951H12.8384C8.89798 10.7951 5.70368 13.9504 5.70368 17.8428C5.70368 21.7352 8.89798 24.8905 12.8384 24.8905H14.4443C14.9173 24.8905 15.371 25.0761 15.7055 25.4065L16.6907 26.3796C17.2482 26.9303 18.0043 27.2397 18.7927 27.2397H22.3513C27.6052 27.2397 31.8643 23.0326 31.8643 17.8428C31.8643 12.653 27.6052 8.44586 22.3513 8.44586L12.8384 8.44586C7.58453 8.44586 3.32544 12.653 3.32544 17.8428C3.32544 23.0326 7.58453 27.2397 12.8384 27.2397Z" fill="#212326"/>
</g>
<defs>
<clipPath id="clip0_211_2072">
<rect width="28.5388" height="18.7939" fill="white" transform="translate(3.32544 8.44586)"/>
</clipPath>
</defs>
</svg>
