<svg width="39" height="35" viewBox="0 0 39 35" fill="none" xmlns="http://www.w3.org/2000/svg">
<g clip-path="url(#clip0_211_2052)">
<path d="M38.5802 14.4805C38.5842 14.4515 38.5842 14.4222 38.5802 14.3931C38.584 14.3695 38.584 14.3454 38.5802 14.3217L38.2966 12.2803C38.2557 12.0361 38.1463 11.8079 37.9807 11.6211L37.932 11.5655L37.8429 11.4781L32.9331 7.33191L33.0709 7.46695C32.9582 7.33478 32.8167 7.22906 32.6569 7.15758C32.4971 7.0861 32.3229 7.05067 32.1473 7.05392H30.6565C30.4141 7.04921 30.1772 7.12477 29.984 7.26838C29.7812 7.12563 29.5369 7.05046 29.2872 7.05392H27.7965C27.601 7.05081 27.4081 7.09838 27.2374 7.19183C27.0666 7.28528 26.9241 7.42129 26.8243 7.58609C26.6703 7.82147 26.6124 8.10506 26.6622 8.38038L26.8486 9.66712C26.7251 9.59852 26.5854 9.56292 26.4435 9.56388H19.2246C18.9656 9.56547 18.7126 9.63989 18.4954 9.77833C18.2854 9.90718 18.1169 10.0917 18.0093 10.3105L17.4503 9.84187C17.2302 9.64229 16.9398 9.53411 16.6401 9.54005H5.31354C5.05362 9.54469 4.79947 9.61587 4.57628 9.74656C4.27094 9.92177 4.04716 10.2067 3.95241 10.5408L0.355144 22.3361C0.28793 22.5304 0.281318 22.74 0.336155 22.9381C0.390992 23.1361 0.504794 23.3137 0.663022 23.4481C0.704252 23.4823 0.747543 23.5142 0.792657 23.5434C0.792657 23.5434 0.719727 23.4957 0.679217 23.456L5.58903 27.6101C5.79672 27.7976 6.06827 27.9024 6.35056 27.904H17.7663C18.027 27.8974 18.2813 27.8234 18.5035 27.6895C18.6292 27.6222 18.7417 27.5334 18.8357 27.4274L18.8762 27.3718L18.941 27.2924L18.9896 27.205L19.5244 27.6578C19.7291 27.8378 19.9948 27.9368 20.2698 27.9358H31.7097C31.9701 27.9273 32.224 27.8535 32.447 27.7213C32.5699 27.6499 32.6817 27.5616 32.7792 27.4592L32.8197 27.4036L32.8845 27.3242C32.9189 27.2739 32.9488 27.2208 32.9736 27.1653C33.0001 27.1172 33.0218 27.0666 33.0384 27.0144L36.3197 16.2439V16.1485C36.3238 16.1116 36.3238 16.0743 36.3197 16.0373V15.9659C36.3237 15.9422 36.3237 15.9181 36.3197 15.8944C36.3234 15.8441 36.3234 15.7937 36.3197 15.7434H37.373C37.4646 15.7517 37.5568 15.7517 37.6484 15.7434H37.7214C37.7807 15.7261 37.8378 15.7021 37.8915 15.672H37.9726L38.1184 15.5608L38.1832 15.5131L38.2966 15.3701V15.3225L38.3776 15.1874C38.3731 15.1612 38.3731 15.1343 38.3776 15.108C38.3733 15.0951 38.3733 15.0812 38.3776 15.0683C38.3949 15.0217 38.4084 14.9739 38.4182 14.9253C38.4144 14.9097 38.4144 14.8933 38.4182 14.8777C38.4142 14.854 38.4142 14.8298 38.4182 14.8062C38.4182 14.8062 38.5802 14.4964 38.5802 14.4805Z" fill="black"/>
<path d="M16.9723 10.4456C17.0153 10.4837 17.0453 10.5338 17.0584 10.5892C17.0714 10.6446 17.0668 10.7026 17.0452 10.7553L13.4561 22.5426C13.4109 22.6713 13.3184 22.7789 13.1968 22.8444C13.0978 22.9093 12.9833 22.9477 12.8646 22.9556H1.45705C1.35963 22.951 1.26733 22.9115 1.19778 22.8444C1.15641 22.8069 1.12737 22.7582 1.11438 22.7044C1.10139 22.6507 1.10505 22.5943 1.12487 22.5426L4.72214 10.7553C4.76358 10.625 4.85314 10.5146 4.97329 10.4456C5.07388 10.3853 5.18787 10.3499 5.30548 10.3423H16.713C16.8097 10.3432 16.9024 10.3801 16.9723 10.4456ZM11.0173 20.1677L13.1644 13.1303H7.15274L5.0138 20.1677H11.0173ZM27.8613 10.5647C27.9002 10.609 27.9489 10.6442 28.0036 10.6676C28.0583 10.691 28.1177 10.702 28.1773 10.6997H29.66C29.7164 10.7003 29.772 10.6867 29.8217 10.6603C29.8713 10.6339 29.9132 10.5955 29.9435 10.5488C29.9698 10.5123 29.9885 10.471 29.9982 10.4274C30.0079 10.3837 30.0086 10.3386 30.0002 10.2947L29.7086 8.19773C29.6808 8.10068 29.6309 8.01106 29.5628 7.93561C29.5238 7.89127 29.4752 7.8561 29.4205 7.83272C29.3658 7.80935 29.3064 7.79836 29.2468 7.80058H27.7641C27.7076 7.80004 27.652 7.81362 27.6024 7.84002C27.5528 7.86643 27.5108 7.90479 27.4805 7.9515C27.4238 8.0627 27.3995 8.13418 27.4238 8.19773L27.7236 10.2947C27.739 10.3968 27.7872 10.4914 27.8613 10.5647ZM32.5686 8.18184C32.5408 8.08479 32.4909 7.99517 32.4227 7.91972C32.3854 7.87554 32.3382 7.84039 32.2848 7.81697C32.2315 7.79355 32.1733 7.78251 32.1149 7.7847H30.6241C30.5686 7.78314 30.5136 7.79635 30.4651 7.82292C30.4166 7.84949 30.3764 7.88843 30.3486 7.93561C30.2947 8.00608 30.2714 8.09459 30.2838 8.18184L30.5836 10.2788C30.6024 10.3798 30.6501 10.4735 30.7213 10.5488C30.7609 10.5923 30.8097 10.6269 30.8643 10.6502C30.9188 10.6735 30.9778 10.685 31.0373 10.6838H32.5281C32.5835 10.6846 32.638 10.671 32.6863 10.6445C32.7347 10.618 32.7751 10.5796 32.8035 10.5329C32.8317 10.4974 32.8514 10.4561 32.8612 10.4121C32.8711 10.3682 32.8707 10.3226 32.8602 10.2788L32.5686 8.18184ZM26.5569 11.359L26.411 10.3264H19.2246C19.1118 10.3325 19.0026 10.3682 18.9086 10.4297C18.849 10.4616 18.797 10.5058 18.7565 10.5593C18.7159 10.6128 18.6877 10.6742 18.6737 10.7395L18.0742 12.7093C18.0502 12.7585 18.042 12.8137 18.0507 12.8676C18.0594 12.9215 18.0845 12.9715 18.1228 13.0111C18.1911 13.0741 18.2803 13.1108 18.3739 13.1144H27.1079L24.9608 20.1518H16.2512C16.1389 20.1543 16.0295 20.1873 15.9353 20.2471C15.8207 20.3184 15.737 20.4288 15.7003 20.5569L15.0926 22.5267C15.0728 22.5773 15.0676 22.6322 15.0776 22.6854C15.0876 22.7387 15.1124 22.7882 15.1493 22.8285C15.2155 22.8957 15.3054 22.9355 15.4005 22.9397H26.8405C26.9588 22.9298 27.0728 22.8916 27.1726 22.8285C27.2923 22.7626 27.382 22.6548 27.4238 22.5267L30.7132 11.7561H27.0106C26.9519 11.7573 26.8935 11.7466 26.8392 11.7247C26.7848 11.7029 26.7357 11.6703 26.6947 11.6291C26.6277 11.557 26.5803 11.4696 26.5569 11.3749V11.359Z" fill="white"/>
</g>
<defs>
<clipPath id="clip0_211_2052">
<rect width="38.2838" height="20.8821" fill="white" transform="translate(0.299377 7.05371)"/>
</clipPath>
</defs>
</svg>
