<svg width="34" height="34" viewBox="0 0 34 34" fill="none" xmlns="http://www.w3.org/2000/svg">
<path d="M7.09076 5.71704H26.9286C28.0823 5.71704 29.189 6.17576 30.0048 6.99146C30.8206 7.80727 31.2792 8.9139 31.2792 10.0676V23.6409C31.2792 24.7947 30.8207 25.9012 30.0048 26.717C29.189 27.5329 28.0825 27.9915 26.9286 27.9915H7.09076C5.93703 27.9914 4.8304 27.5329 4.01459 26.717C3.1989 25.9012 2.74017 24.7945 2.74017 23.6409V10.0676C2.74023 8.9139 3.19878 7.80727 4.01459 6.99146C4.8304 6.17564 5.93703 5.7171 7.09076 5.71704ZM4.13275 23.6409C4.13275 24.4253 4.44435 25.1779 4.99896 25.7327C5.5537 26.2874 6.30625 26.5998 7.09076 26.5999H26.9286C27.7132 26.5999 28.4657 26.2875 29.0204 25.7327C29.5752 25.1779 29.8876 24.4255 29.8876 23.6409V13.3743H4.13275V23.6409ZM22.2304 20.3352H25.3632C25.5477 20.3353 25.725 20.4079 25.8554 20.5383C25.9858 20.6688 26.0584 20.8461 26.0585 21.0305C26.0585 21.2149 25.9857 21.3922 25.8554 21.5227C25.725 21.6531 25.5477 21.7267 25.3632 21.7268H22.2304C22.0458 21.7268 21.8687 21.6532 21.7382 21.5227C21.6078 21.3922 21.5341 21.215 21.5341 21.0305C21.5342 20.8461 21.6078 20.6688 21.7382 20.5383C21.8687 20.4079 22.0459 20.3352 22.2304 20.3352ZM7.09076 7.10962C6.30625 7.10968 5.5537 7.4211 4.99896 7.97583C4.44423 8.53056 4.13281 9.28312 4.13275 10.0676V11.9817H29.8876V10.0676C29.8876 9.28312 29.5752 8.53056 29.0204 7.97583C28.4657 7.42121 27.7131 7.10962 26.9286 7.10962H7.09076Z" fill="#4CAF4F" stroke="#4CAF4F" stroke-width="0.696069"/>
</svg>
