<svg width="46" height="40" viewBox="0 0 46 40" fill="none" xmlns="http://www.w3.org/2000/svg">
<path d="M45.666 27.4136C45.666 34.3333 40.0564 39.9429 33.1367 39.9429L14.3428 39.9429C12.4207 39.9429 10.8625 38.3847 10.8625 36.4625L10.8625 12.7962C10.8625 8.95187 13.9789 5.83547 17.8232 5.83547L42.1856 5.83547C44.1078 5.83547 45.666 7.39367 45.666 9.31581L45.666 27.4136Z" fill="#E8F5E9"/>
<path d="M20.1283 17.4212C19.9607 17.4212 19.805 17.3751 19.6668 17.301V17.3029C19.6668 17.5666 19.5643 17.8143 19.3783 17.9998C19.1924 18.1857 18.9449 18.2882 18.6815 18.2882C18.5115 18.2882 18.3539 18.241 18.2141 18.1649C18.2 18.4061 18.1036 18.6316 17.9316 18.8038C17.7456 18.9898 17.4982 19.0923 17.2346 19.0923C16.7109 19.0923 16.2857 18.6807 16.2551 18.1647C16.093 18.2523 15.9099 18.2982 15.7209 18.2861C15.2058 18.2523 14.8024 17.8072 14.8024 17.2726V12.841L14.2978 13.7152C14.1056 14.0496 13.7458 14.2572 13.3584 14.2572C13.1697 14.2572 12.9832 14.2077 12.8181 14.113C12.6124 13.9938 12.4653 13.8024 12.4042 13.5735C12.3427 13.3444 12.3745 13.1048 12.4934 12.8995C12.4935 12.8995 14.1444 10.0406 14.2452 9.86496C14.2571 9.83856 14.2912 9.76197 14.3203 9.6967C14.348 9.63439 14.3718 9.57043 14.3946 9.50614C14.8924 8.10058 16.1252 7.22748 17.6119 7.22748C19.5426 7.22748 21.1133 8.93069 21.1133 11.0243L21.1135 16.4357C21.1135 16.6991 21.0112 16.9466 20.8254 17.1327C20.6394 17.3187 20.3919 17.4212 20.1282 17.4212L20.1283 17.4212ZM17.612 7.75103C16.3344 7.75103 15.3162 8.47261 14.888 9.68124C14.8606 9.75798 14.8321 9.83473 14.7988 9.90951C14.7022 10.1261 14.7022 10.1261 14.675 10.1573L14.6714 10.1542C14.5366 10.4085 14.1361 11.1021 12.9467 13.1615C12.8978 13.2459 12.8849 13.344 12.9098 13.4378C12.935 13.5316 12.9956 13.6107 13.0794 13.659C13.3395 13.8084 13.6957 13.712 13.8439 13.4537L14.8375 11.7334C14.8969 11.6309 15.0169 11.5806 15.1321 11.6117C15.2465 11.6424 15.3261 11.7462 15.3261 11.8646V17.2727C15.3261 17.5279 15.5186 17.7482 15.7552 17.7637C15.8917 17.7709 16.0189 17.7252 16.1145 17.6297C16.2015 17.5428 16.2493 17.4271 16.2493 17.3032V13.7663C16.2493 13.6216 16.3666 13.5044 16.5112 13.5044C16.6559 13.5044 16.7731 13.6214 16.7731 13.7663L16.773 18.1072C16.773 18.3617 16.9801 18.5688 17.2346 18.5688C17.3583 18.5688 17.4744 18.5209 17.5615 18.434C17.6484 18.347 17.6963 18.2308 17.6963 18.1072V13.7662C17.6963 13.6216 17.8133 13.5043 17.9581 13.5043C18.1028 13.5043 18.22 13.6214 18.22 13.7662L18.2199 17.2626V17.3032C18.2199 17.5576 18.427 17.7647 18.6817 17.7647C18.8052 17.7647 18.9209 17.7166 19.0085 17.6294C19.0954 17.5426 19.1433 17.4269 19.1433 17.3031V13.7661C19.1433 13.6214 19.2604 13.5042 19.4052 13.5042C19.5499 13.5042 19.6671 13.6213 19.6671 13.7661L19.6668 16.4359C19.6668 16.6906 19.8739 16.8977 20.1283 16.8977C20.2521 16.8977 20.3678 16.8496 20.4548 16.7629C20.542 16.6756 20.5897 16.5595 20.5897 16.4359L20.5899 11.0244C20.5899 9.21966 19.254 7.75108 17.6119 7.75108L17.612 7.75103Z" fill="#103E13"/>
<path d="M9.83859 21.1823L13.6389 18.9025C14.0971 18.6273 14.6867 18.7443 14.9806 19.1688C15.0878 19.3235 15.1426 19.5037 15.1511 19.6872C15.2928 19.6133 15.4469 19.5731 15.6039 19.5731C15.6842 19.5731 15.7649 19.5831 15.8446 19.6029C16.1 19.6667 16.3151 19.8263 16.4504 20.0519C16.5859 20.2779 16.6254 20.5427 16.5616 20.7978C16.5027 21.0338 16.3592 21.2324 16.1597 21.3687C16.2992 21.451 16.4196 21.5633 16.5052 21.7063C16.6407 21.9323 16.6802 22.197 16.6165 22.4523C16.5528 22.7073 16.3932 22.9225 16.1672 23.0581L16.1659 23.059C16.303 23.1411 16.4212 23.2523 16.5059 23.3932C16.6415 23.6192 16.681 23.884 16.6172 24.1393C16.5533 24.3945 16.3937 24.6096 16.168 24.7451L11.5278 27.5289C10.6617 28.0483 9.66053 28.2275 8.70905 28.0332C7.74904 27.8371 6.95398 27.2853 6.47056 26.4794C5.70552 25.2043 5.82017 23.6979 6.76919 22.5481C6.81265 22.4956 6.85545 22.4422 6.89432 22.3867C6.93548 22.3282 6.98353 22.2593 6.99993 22.2357C7.09816 22.0602 8.70104 19.1723 8.70088 19.1727C8.86274 18.8806 9.16612 18.7153 9.47901 18.7154C9.62497 18.7154 9.77305 18.7513 9.90967 18.8271C10.0746 18.9193 10.2132 19.0536 10.3101 19.2154C10.5094 19.5475 10.5164 19.9631 10.3288 20.2994L9.83859 21.1823ZM9.86138 19.4847C9.81055 19.3999 9.74068 19.3323 9.65524 19.2844C9.47862 19.1867 9.25625 19.2503 9.15901 19.4263C8.01206 21.4926 7.62109 22.1968 7.4702 22.4474L7.47365 22.4482C7.46102 22.4902 7.46102 22.4902 7.32294 22.6874C7.27604 22.7542 7.22504 22.8183 7.17305 22.8815C6.357 23.8702 6.26225 25.1144 6.91935 26.21C7.32638 26.8886 7.99909 27.3538 8.81362 27.5201C9.63702 27.6876 10.5049 27.5318 11.2581 27.0798L15.8988 24.2959C16.0048 24.2324 16.0795 24.1316 16.1094 24.012C16.1392 23.8927 16.1207 23.7685 16.0571 23.6626C15.9262 23.4445 15.642 23.3728 15.4239 23.5042L13.1346 24.8776C13.0106 24.9521 12.8495 24.912 12.7753 24.7879C12.7008 24.6639 12.741 24.503 12.865 24.4286L15.1545 23.0551L15.898 22.6091C16.0039 22.5455 16.0789 22.4446 16.1087 22.3254C16.1386 22.2058 16.12 22.0815 16.0564 21.9758C15.9254 21.7575 15.6412 21.6865 15.4232 21.8173L12.3902 23.6368C12.2659 23.7115 12.1053 23.6711 12.0309 23.5471C11.9564 23.4232 11.9968 23.2623 12.1206 23.1878L15.8431 20.9548C15.949 20.8911 16.0238 20.7904 16.0536 20.6709C16.0835 20.5515 16.0649 20.4274 16.0015 20.3214C15.938 20.2156 15.8372 20.1409 15.7176 20.111C15.5974 20.0812 15.4738 20.0997 15.3681 20.163L14.679 20.5764C14.6789 20.5764 14.6789 20.5766 14.6787 20.5766H14.6786L11.6457 22.3961C11.5214 22.4709 11.3607 22.4305 11.2864 22.3064C11.2119 22.1824 11.2523 22.0215 11.3761 21.9471L14.4091 20.1276C14.5151 20.064 14.59 19.9631 14.6198 19.8439C14.6526 19.713 14.6277 19.5792 14.55 19.467C14.4152 19.272 14.1269 19.2202 13.9083 19.3516L9.27095 22.1336C9.16944 22.1942 9.0394 22.1795 8.95428 22.0973C8.86901 22.015 8.84982 21.8856 8.90722 21.7821L9.8715 20.0448C9.96826 19.8711 9.96448 19.6566 9.86133 19.4847L9.86138 19.4847Z" fill="#103E13"/>
<path d="M27.9983 26.4793C27.515 27.2853 26.7202 27.837 25.76 28.0331C24.8084 28.2271 23.8075 28.0482 22.9413 27.5288L18.3006 24.7449C18.0748 24.6094 17.9151 24.3943 17.8511 24.1388C17.7876 23.8837 17.8273 23.6189 17.9626 23.3932C18.0471 23.2522 18.1655 23.141 18.3027 23.0589L18.3014 23.058C18.0756 22.9226 17.9159 22.7074 17.8523 22.4522C17.7883 22.1971 17.828 21.932 17.9634 21.7061C18.0507 21.561 18.1702 21.4475 18.3067 21.367C18.1086 21.2307 17.9659 21.0327 17.9072 20.7979C17.8432 20.5426 17.8829 20.2777 18.0184 20.052C18.1537 19.8262 18.369 19.6667 18.6242 19.6029C18.7039 19.5829 18.7847 19.573 18.8648 19.573C19.0219 19.5732 19.176 19.613 19.3177 19.6872C19.3264 19.5037 19.381 19.3234 19.4883 19.1688C19.7823 18.7445 20.3714 18.6271 20.8302 18.9024L24.6304 21.1819L24.1406 20.2996C23.9527 19.9628 23.9595 19.5472 24.1588 19.215C24.2559 19.0533 24.3946 18.919 24.5604 18.826C24.6967 18.7506 24.8443 18.7148 24.9899 18.7148C25.3026 18.715 25.6063 18.88 25.768 19.1721C26.3315 20.1873 27.3948 22.1021 27.4696 22.2358C27.4855 22.2589 27.5336 22.3278 27.5747 22.3863C27.6139 22.4419 27.6562 22.495 27.7 22.5479C28.6489 23.6981 28.7633 25.2044 27.9983 26.4793L27.9983 26.4793ZM27.296 22.8816C27.2438 22.8185 27.1927 22.754 27.1461 22.6876C27.0044 22.4865 27.0008 22.4813 26.9901 22.4287C26.8245 22.1546 26.4204 21.4272 25.3097 19.4261C25.2123 19.2505 24.9909 19.1863 24.8146 19.2838C24.7279 19.3323 24.6582 19.4 24.6073 19.4848C24.5044 19.6565 24.5004 19.871 24.5977 20.0452L25.5616 21.782C25.6192 21.8857 25.6 22.0149 25.5149 22.0972C25.4299 22.1797 25.3 22.1941 25.198 22.1335L20.5607 19.3515C20.3421 19.2204 20.054 19.2718 19.9188 19.4669C19.8411 19.5791 19.8163 19.7129 19.8488 19.8436C19.8787 19.963 19.9536 20.0637 20.0597 20.1273C20.06 20.1275 20.0602 20.1278 20.0605 20.128L23.0926 21.947C23.2166 22.0214 23.2568 22.1821 23.1823 22.3063C23.1078 22.4301 22.9473 22.4706 22.823 22.396L19.1005 20.1629C18.9949 20.0996 18.8706 20.0809 18.7512 20.1109C18.6315 20.1408 18.5308 20.2156 18.4673 20.3217C18.4037 20.4274 18.3854 20.5516 18.4149 20.671C18.4447 20.7904 18.5197 20.8912 18.6256 20.9548L19.35 21.3893L22.3479 23.188C22.4719 23.2624 22.5121 23.4231 22.4376 23.5473C22.3632 23.6711 22.2026 23.7114 22.0783 23.637L19.0456 21.8175C18.8275 21.6863 18.5434 21.7574 18.4123 21.9759C18.3486 22.0818 18.3303 22.206 18.3598 22.3253C18.3896 22.4447 18.4646 22.5454 18.5707 22.6092L19.3142 23.0553L21.6034 24.4287C21.7273 24.5032 21.7675 24.6639 21.6931 24.788C21.6186 24.9118 21.4581 24.9525 21.3338 24.8777L19.0446 23.5043C18.939 23.441 18.8152 23.4223 18.6951 23.4523C18.5757 23.4821 18.4747 23.5569 18.4113 23.6627C18.3478 23.7686 18.3293 23.8929 18.3588 24.0122C18.3886 24.1316 18.4636 24.2322 18.5697 24.296L23.2104 27.08C23.9635 27.5318 24.8319 27.6882 25.6549 27.5203C26.4692 27.354 27.142 26.8887 27.549 26.2101C28.2068 25.1143 28.1121 23.87 27.2963 22.8816L27.296 22.8816Z" fill="#103E13"/>
</svg>
