<svg width="46" height="40" viewBox="0 0 46 40" fill="none" xmlns="http://www.w3.org/2000/svg">
<path d="M45.7923 27.4136C45.7923 34.3333 40.1828 39.9429 33.263 39.9429L14.4692 39.9429C12.547 39.9429 10.9888 38.3847 10.9888 36.4625L10.9888 12.7962C10.9888 8.95187 14.1052 5.83547 17.9495 5.83547L42.312 5.83547C44.2341 5.83547 45.7923 7.39367 45.7923 9.31581L45.7923 27.4136Z" fill="#E8F5E9"/>
<path d="M19.2834 14.1957C19.0662 14.1957 18.8896 14.0194 18.8896 13.8019V13.1328C18.8896 12.9156 19.0659 12.739 19.2834 12.739C19.5006 12.739 19.6771 12.9153 19.6771 13.1328V13.8019C19.6771 14.0194 19.5006 14.1957 19.2834 14.1957Z" fill="#103E13"/>
<path d="M17.628 14.1957C17.4108 14.1957 17.2343 14.0194 17.2343 13.8019V13.1328C17.2343 12.9156 17.4105 12.739 17.628 12.739C17.8452 12.739 18.0217 12.9153 18.0217 13.1328V13.8019C18.0215 14.0194 17.8455 14.1957 17.628 14.1957Z" fill="#103E13"/>
<path d="M15.9727 14.1957C15.7555 14.1957 15.579 14.0194 15.579 13.8019V13.1328C15.579 12.9156 15.7553 12.739 15.9727 12.739C16.1899 12.739 16.3665 12.9153 16.3665 13.1328V13.8019C16.3665 14.0194 16.1902 14.1957 15.9727 14.1957Z" fill="#103E13"/>
<path d="M19.2834 16.9322C19.0662 16.9322 18.8896 16.7559 18.8896 16.5385V15.8696C18.8896 15.6524 19.0659 15.4758 19.2834 15.4758C19.5006 15.4758 19.6771 15.6521 19.6771 15.8696V16.5385C19.6771 16.7559 19.5006 16.9322 19.2834 16.9322Z" fill="#103E13"/>
<path d="M17.628 16.9322C17.4108 16.9322 17.2343 16.7559 17.2343 16.5385V15.8696C17.2343 15.6524 17.4105 15.4758 17.628 15.4758C17.8452 15.4758 18.0217 15.6521 18.0217 15.8696V16.5385C18.0215 16.7559 17.8455 16.9322 17.628 16.9322Z" fill="#103E13"/>
<path d="M15.9727 16.9322C15.7555 16.9322 15.579 16.7559 15.579 16.5385V15.8696C15.579 15.6524 15.7553 15.4758 15.9727 15.4758C16.1899 15.4758 16.3665 15.6521 16.3665 15.8696V16.5385C16.3665 16.7559 16.1902 16.9322 15.9727 16.9322Z" fill="#103E13"/>
<path d="M19.2834 19.6686C19.0662 19.6686 18.8896 19.4923 18.8896 19.2748V18.6057C18.8896 18.3885 19.0659 18.2119 19.2834 18.2119C19.5006 18.2119 19.6771 18.3882 19.6771 18.6057V19.2748C19.6771 19.4923 19.5006 19.6686 19.2834 19.6686Z" fill="#103E13"/>
<path d="M17.628 19.6686C17.4108 19.6686 17.2343 19.4923 17.2343 19.2748V18.6057C17.2343 18.3885 17.4105 18.2119 17.628 18.2119C17.8452 18.2119 18.0217 18.3882 18.0217 18.6057V19.2748C18.0215 19.4923 17.8455 19.6686 17.628 19.6686Z" fill="#103E13"/>
<path d="M15.9727 19.6686C15.7555 19.6686 15.579 19.4923 15.579 19.2748V18.6057C15.579 18.3885 15.7553 18.2119 15.9727 18.2119C16.1899 18.2119 16.3665 18.3882 16.3665 18.6057V19.2748C16.3665 19.4923 16.1902 19.6686 15.9727 19.6686Z" fill="#103E13"/>
<path d="M19.2834 22.4044C19.0662 22.4044 18.8896 22.2281 18.8896 22.0106V21.3415C18.8896 21.1243 19.0659 20.9478 19.2834 20.9478C19.5006 20.9478 19.6771 21.124 19.6771 21.3415V22.0106C19.6771 22.2281 19.5006 22.4044 19.2834 22.4044Z" fill="#103E13"/>
<path d="M17.628 22.4044C17.4108 22.4044 17.2343 22.2281 17.2343 22.0106V21.3415C17.2343 21.1243 17.4105 20.9478 17.628 20.9478C17.8452 20.9478 18.0217 21.124 18.0217 21.3415V22.0106C18.0215 22.2281 17.8455 22.4044 17.628 22.4044Z" fill="#103E13"/>
<path d="M15.9727 22.4044C15.7555 22.4044 15.579 22.2281 15.579 22.0106V21.3415C15.579 21.1243 15.7553 20.9478 15.9727 20.9478C16.1899 20.9478 16.3665 21.124 16.3665 21.3415V22.0106C16.3665 22.2281 16.1902 22.4044 15.9727 22.4044Z" fill="#103E13"/>
<path d="M19.2834 25.1409C19.0662 25.1409 18.8896 24.9647 18.8896 24.7472V24.0783C18.8896 23.8611 19.0659 23.6846 19.2834 23.6846C19.5006 23.6846 19.6771 23.8609 19.6771 24.0783V24.7472C19.6771 24.9644 19.5006 25.1409 19.2834 25.1409Z" fill="#103E13"/>
<path d="M17.628 25.1409C17.4108 25.1409 17.2343 24.9647 17.2343 24.7472V24.0783C17.2343 23.8611 17.4105 23.6846 17.628 23.6846C17.8452 23.6846 18.0217 23.8609 18.0217 24.0783V24.7472C18.0215 24.9644 17.8455 25.1409 17.628 25.1409Z" fill="#103E13"/>
<path d="M15.9727 25.1409C15.7555 25.1409 15.579 24.9647 15.579 24.7472L15.5793 24.0783C15.5793 23.8611 15.7555 23.6846 15.973 23.6846C16.1902 23.6846 16.3668 23.8609 16.3668 24.0783V24.7472C16.3665 24.9644 16.1902 25.1409 15.9727 25.1409Z" fill="#103E13"/>
<path d="M4.72451 27.864C4.72451 28.0812 4.90079 28.2578 5.11826 28.2578H29.0963C29.3135 28.2578 29.49 28.0815 29.49 27.864C29.49 27.6468 29.3138 27.4703 29.0963 27.4703H28.3684V16.1652C28.3684 15.948 28.1921 15.7714 27.9747 15.7714L21.546 15.7717V7.62135C21.546 7.48351 21.474 7.35611 21.3565 7.28471C21.2393 7.21305 21.0926 7.20866 20.9707 7.27208L13.6618 11.0775C13.5313 11.1453 13.4501 11.2798 13.4501 11.4268V18.5459H6.37657C6.15938 18.5459 5.98282 18.7222 5.98282 18.9397V27.4703H5.11738C4.90019 27.47 4.72418 27.6463 4.72418 27.8638L4.72451 27.864ZM21.5461 21.7352H27.5813V27.4706L21.5461 27.4703V21.7352ZM21.5461 18.999H27.5813V20.948L21.5461 20.9477V18.999ZM21.5461 16.5588H27.5813V18.2121H21.5461V16.5588ZM14.2371 11.6658L20.7583 8.27038V27.4699H14.2371V11.6658ZM8.71675 24.3254C8.71675 23.5083 9.3642 22.8433 10.1602 22.8433C10.9562 22.8433 11.6039 23.508 11.6039 24.3254V27.4704H8.71675V24.3254ZM6.77029 19.3333H13.4499V27.4703H12.3914V24.3253C12.3914 23.074 11.3909 22.0559 10.1602 22.0559C8.93009 22.0559 7.92955 23.0737 7.92955 24.3253V27.4703H6.77029V19.3333Z" fill="#103E13"/>
</svg>
